<svg width="277" height="72" viewBox="0 0 277 72" fill="none" xmlns="http://www.w3.org/2000/svg">
<path d="M77.4397 48.9153H73.4597L82.4025 24.0647H86.7344L95.6772 48.9153H91.6972L84.6716 28.5786H84.4775L77.4397 48.9153ZM78.1071 39.1838H91.0177V42.3386H78.1071V39.1838ZM98.9746 48.9153V30.2774H102.481V33.2381H102.675C103.015 32.235 103.614 31.4463 104.471 30.8719C105.337 30.2895 106.316 29.9983 107.408 29.9983C107.634 29.9983 107.901 30.0064 108.209 30.0226C108.524 30.0387 108.771 30.059 108.949 30.0832V33.5536C108.803 33.5131 108.544 33.4686 108.172 33.4201C107.8 33.3635 107.428 33.3352 107.056 33.3352C106.198 33.3352 105.434 33.5172 104.763 33.8812C104.099 34.2371 103.573 34.7346 103.185 35.3737C102.797 36.0047 102.603 36.7246 102.603 37.5335V48.9153H98.9746ZM112.088 48.9153V30.2774H115.571V33.3109H115.802C116.19 32.2835 116.825 31.4827 117.707 30.9084C118.588 30.3259 119.644 30.0347 120.874 30.0347C122.119 30.0347 123.163 30.3259 124.004 30.9084C124.854 31.4908 125.48 32.2916 125.885 33.3109H126.079C126.524 32.3159 127.232 31.5231 128.203 30.9326C129.173 30.334 130.33 30.0347 131.673 30.0347C133.364 30.0347 134.743 30.5646 135.811 31.6243C136.886 32.684 137.424 34.2816 137.424 36.4172V48.9153H133.796V36.757C133.796 35.495 133.453 34.5809 132.765 34.0147C132.077 33.4484 131.256 33.1653 130.302 33.1653C129.121 33.1653 128.203 33.5293 127.547 34.2573C126.892 34.9773 126.564 35.9035 126.564 37.036V48.9153H122.948V36.5264C122.948 35.5152 122.633 34.7023 122.002 34.0875C121.371 33.4727 120.55 33.1653 119.539 33.1653C118.851 33.1653 118.216 33.3473 117.634 33.7113C117.059 34.0672 116.594 34.5647 116.238 35.2038C115.89 35.8429 115.717 36.583 115.717 37.4243V48.9153H112.088ZM158.559 24.0647H162.32V40.4093C162.32 42.1485 161.912 43.6896 161.095 45.0324C160.278 46.3671 159.129 47.4188 157.649 48.1872C156.168 48.9476 154.433 49.3278 152.443 49.3278C150.461 49.3278 148.73 48.9476 147.25 48.1872C145.77 47.4188 144.621 46.3671 143.804 45.0324C142.987 43.6896 142.578 42.1485 142.578 40.4093V24.0647H146.328V40.106C146.328 41.2304 146.574 42.2294 147.068 43.1031C147.569 43.9767 148.277 44.6643 149.191 45.1659C150.105 45.6593 151.189 45.906 152.443 45.906C153.705 45.906 154.793 45.6593 155.707 45.1659C156.63 44.6643 157.333 43.9767 157.819 43.1031C158.312 42.2294 158.559 41.2304 158.559 40.106V24.0647ZM170.817 42.5934L170.793 38.1645H171.424L178.85 30.2774H183.194L174.724 39.2566H174.154L170.817 42.5934ZM167.48 48.9153V24.0647H171.109V48.9153H167.48ZM179.25 48.9153L172.577 40.0574L175.076 37.5214L183.704 48.9153H179.25ZM186.501 48.9153V30.2774H190.007V33.2381H190.201C190.541 32.235 191.14 31.4463 191.997 30.8719C192.863 30.2895 193.842 29.9983 194.934 29.9983C195.16 29.9983 195.427 30.0064 195.735 30.0226C196.05 30.0387 196.297 30.059 196.475 30.0832V33.5536C196.329 33.5131 196.07 33.4686 195.698 33.4201C195.326 33.3635 194.954 33.3352 194.582 33.3352C193.724 33.3352 192.96 33.5172 192.289 33.8812C191.625 34.2371 191.099 34.7346 190.711 35.3737C190.323 36.0047 190.129 36.7246 190.129 37.5335V48.9153H186.501ZM204.872 49.3278C203.69 49.3278 202.623 49.1094 201.668 48.6726C200.714 48.2277 199.957 47.5846 199.399 46.7433C198.849 45.902 198.574 44.8706 198.574 43.6491C198.574 42.5975 198.776 41.7319 199.181 41.0524C199.585 40.3729 200.131 39.835 200.819 39.4386C201.506 39.0422 202.275 38.7429 203.124 38.5407C203.974 38.3384 204.839 38.1847 205.721 38.0796C206.837 37.9501 207.743 37.845 208.439 37.7641C209.135 37.6751 209.64 37.5335 209.956 37.3394C210.271 37.1453 210.429 36.8298 210.429 36.3929V36.308C210.429 35.2483 210.13 34.4272 209.531 33.8448C208.94 33.2624 208.059 32.9711 206.886 32.9711C205.664 32.9711 204.702 33.2421 203.998 33.7841C203.302 34.318 202.821 34.9126 202.554 35.5678L199.144 34.7912C199.549 33.6587 200.139 32.7446 200.916 32.049C201.7 31.3452 202.602 30.8355 203.622 30.5201C204.641 30.1965 205.713 30.0347 206.837 30.0347C207.581 30.0347 208.37 30.1237 209.203 30.3016C210.045 30.4715 210.829 30.787 211.557 31.2481C212.294 31.7092 212.896 32.3685 213.365 33.226C213.835 34.0753 214.069 35.1795 214.069 36.5386V48.9153H210.526V46.3671H210.38C210.146 46.8363 209.794 47.2974 209.325 47.7504C208.856 48.2034 208.253 48.5796 207.517 48.8789C206.781 49.1782 205.899 49.3278 204.872 49.3278ZM205.66 46.4157C206.663 46.4157 207.521 46.2175 208.233 45.8211C208.953 45.4247 209.499 44.907 209.871 44.2679C210.251 43.6208 210.441 42.9292 210.441 42.193V39.7905C210.312 39.9199 210.061 40.0412 209.689 40.1545C209.325 40.2597 208.908 40.3527 208.439 40.4336C207.97 40.5064 207.513 40.5751 207.068 40.6399C206.623 40.6965 206.251 40.745 205.951 40.7855C205.248 40.8745 204.605 41.0241 204.022 41.2344C203.448 41.4448 202.987 41.7481 202.639 42.1445C202.299 42.5328 202.129 43.0505 202.129 43.6976C202.129 44.5956 202.461 45.2751 203.124 45.7362C203.788 46.1892 204.633 46.4157 205.66 46.4157ZM218.902 48.9153V30.2774H222.53V48.9153H218.902ZM220.734 27.4016C220.103 27.4016 219.561 27.1913 219.108 26.7706C218.663 26.3419 218.44 25.8323 218.44 25.2417C218.44 24.6431 218.663 24.1335 219.108 23.7129C219.561 23.2841 220.103 23.0698 220.734 23.0698C221.365 23.0698 221.903 23.2841 222.348 23.7129C222.801 24.1335 223.027 24.6431 223.027 25.2417C223.027 25.8323 222.801 26.3419 222.348 26.7706C221.903 27.1913 221.365 27.4016 220.734 27.4016ZM231.039 37.849V48.9153H227.411V30.2774H230.893V33.3109H231.124C231.552 32.324 232.224 31.5312 233.138 30.9326C234.06 30.334 235.221 30.0347 236.62 30.0347C237.89 30.0347 239.003 30.3016 239.957 30.8355C240.912 31.3614 241.652 32.146 242.178 33.1896C242.703 34.2331 242.966 35.5233 242.966 37.0603V48.9153H239.338V37.4971C239.338 36.1462 238.986 35.0906 238.283 34.3302C237.579 33.5617 236.612 33.1774 235.383 33.1774C234.541 33.1774 233.793 33.3594 233.138 33.7234C232.491 34.0875 231.977 34.6214 231.597 35.3251C231.225 36.0208 231.039 36.8621 231.039 37.849ZM255.865 49.2914C254.029 49.2914 252.447 48.8991 251.12 48.1144C249.802 47.3217 248.783 46.2094 248.063 44.7776C247.351 43.3377 246.995 41.651 246.995 39.7177C246.995 37.8086 247.351 36.126 248.063 34.6699C248.783 33.2138 249.786 32.0773 251.072 31.2602C252.366 30.4432 253.879 30.0347 255.61 30.0347C256.662 30.0347 257.681 30.2086 258.668 30.5565C259.655 30.9043 260.541 31.4503 261.325 32.1946C262.11 32.9388 262.729 33.9055 263.182 35.0946C263.635 36.2756 263.861 37.7115 263.861 39.4022V40.6884H249.046V37.9704H260.306C260.306 37.0158 260.112 36.1705 259.724 35.4344C259.335 34.6901 258.789 34.1036 258.085 33.6749C257.39 33.2462 256.573 33.0318 255.634 33.0318C254.615 33.0318 253.725 33.2826 252.965 33.7841C252.213 34.2776 251.63 34.9247 251.218 35.7256C250.813 36.5183 250.611 37.3798 250.611 38.3101V40.4336C250.611 41.6793 250.829 42.7391 251.266 43.6127C251.711 44.4864 252.33 45.1537 253.123 45.6148C253.915 46.0678 254.842 46.2943 255.901 46.2943C256.589 46.2943 257.216 46.1973 257.782 46.0031C258.348 45.8009 258.838 45.5016 259.25 45.1052C259.663 44.7088 259.978 44.2194 260.197 43.637L263.631 44.2558C263.356 45.267 262.862 46.1528 262.15 46.9132C261.447 47.6655 260.561 48.252 259.493 48.6726C258.433 49.0852 257.224 49.2914 255.865 49.2914Z" fill="black"/>
<rect x="11.5938" y="11.5933" width="34.1695" height="34.1695" fill="#2356B1"/>
<rect x="26.2373" y="26.2373" width="34.1695" height="34.1695" fill="#F9D94A"/>
<rect x="26.2373" y="26.2373" width="19.5254" height="19.5254" fill="url(#paint0_linear_131_11864)"/>
<defs>
<linearGradient id="paint0_linear_131_11864" x1="45.7444" y1="45.658" x2="26.23" y2="26.1435" gradientUnits="userSpaceOnUse">
<stop stop-color="#2356B1"/>
<stop offset="1" stop-color="#F9D94A"/>
</linearGradient>
</defs>
</svg>
